<svg xmlns="http://www.w3.org/2000/svg" xmlns:xlink="http://www.w3.org/1999/xlink" width="68" height="68" viewBox="0 0 68 68">
  <defs>
    <filter id="Ellipse_13" x="0" y="0" width="68" height="68" filterUnits="userSpaceOnUse">
      <feOffset dy="3" input="SourceAlpha"/>
      <feGaussianBlur stdDeviation="3" result="blur"/>
      <feFlood flood-opacity="0.161"/>
      <feComposite operator="in" in2="blur"/>
      <feComposite in="SourceGraphic"/>
    </filter>
  </defs>
  <g id="Group_2683" data-name="Group 2683" transform="translate(-766 -209)">
    <g transform="matrix(1, 0, 0, 1, 766, 209)" filter="url(#Ellipse_13)">
      <circle id="Ellipse_13-2" data-name="Ellipse 13" cx="25" cy="25" r="25" transform="translate(9 6)" fill="#6caea3"/>
    </g>
    <path id="Path_1589" data-name="Path 1589" d="M860.333,1091.333h-6.667v-6.667a1.667,1.667,0,0,0-.488-1.183,1.678,1.678,0,0,0-2.356,0,1.667,1.667,0,0,0-.488,1.183v6.667h-6.667a1.714,1.714,0,0,0-1.178.483,1.677,1.677,0,0,0,0,2.367,1.714,1.714,0,0,0,1.178.483h6.667v6.667a1.667,1.667,0,0,0,.488,1.183,1.678,1.678,0,0,0,2.356,0,1.667,1.667,0,0,0,.488-1.183v-6.667h6.667a1.714,1.714,0,0,0,1.178-.483,1.677,1.677,0,0,0,0-2.367A1.714,1.714,0,0,0,860.333,1091.333Z" transform="translate(-52 -853)" fill="#fbf8f9"/>
  </g>
</svg>
