<svg id="Group_2739" data-name="Group 2739" xmlns="http://www.w3.org/2000/svg" width="66.796" height="67.809" viewBox="0 0 66.796 67.809">
  <path id="Path_1956" data-name="Path 1956" d="M33.4,0h0A33.4,33.4,0,0,1,66.8,33.4v1.014a33.4,33.4,0,0,1-33.4,33.4h0A33.4,33.4,0,0,1,0,34.412V33.4A33.4,33.4,0,0,1,33.4,0Z" fill="rgba(174,108,119,0.15)"/>
  <g id="Group_2603" data-name="Group 2603" transform="translate(22.046 22.553)">
    <path id="Path_1946" data-name="Path 1946" d="M0,0H22.773V22.773H0Z" fill="none"/>
    <path id="Path_1947" data-name="Path 1947" d="M18.3,16.6V4.7A1.7,1.7,0,0,0,16.6,3H4.7A1.7,1.7,0,0,0,3,4.7V16.6a1.7,1.7,0,0,0,1.7,1.7H16.6a1.7,1.7,0,0,0,1.7-1.7ZM7.673,11.923,9.8,14.48l2.974-3.832,3.824,5.1H4.7Z" transform="translate(0.739 0.739)" fill="#fff"/>
    <circle id="Ellipse_12" data-name="Ellipse 12" cx="1" cy="1" r="1" transform="translate(6.448 8.447)" fill="#fff"/>
  </g>
</svg>
