<svg id="logo" xmlns="http://www.w3.org/2000/svg" xmlns:xlink="http://www.w3.org/1999/xlink" width="32.74" height="36" viewBox="0 0 32.74 36">
  <defs>
    <clipPath id="clip-path">
      <rect id="Rectangle_505" data-name="Rectangle 505" width="32.74" height="36" fill="#ae6c77"/>
    </clipPath>
  </defs>
  <g id="Group_2631" data-name="Group 2631" clip-path="url(#clip-path)">
    <path id="Path_1962" data-name="Path 1962" d="M31.388,9.639l-11.6-6.7a4.325,4.325,0,0,0-4.312,0l-11.6,6.7a4.324,4.324,0,0,0-2.156,3.735V26.766A4.325,4.325,0,0,0,3.878,30.5l9.452,5.457,2.147,1.24a4.289,4.289,0,0,0,1.127.449,4.381,4.381,0,0,0,.46.088l.044-.024a14.605,14.605,0,0,0,5.154-4.84,4.915,4.915,0,0,0,.625-1.114,6.491,6.491,0,0,0,.335-1.282,10.719,10.719,0,0,0,.171-1.3,10.992,10.992,0,0,0,.021-1.152c0-1.357.008-3.515.01-5.765,0-.006,0-.011,0-.017.005-4.318.008-8.972.008-8.972H28.2a5.93,5.93,0,0,0,2.394-.5,1.573,1.573,0,0,0-.58-.587l-2.062-1.191h-6.9l.092,1.226c.007.1.011.172.011.242V27.891a8.337,8.337,0,0,1-.969,4.048,7.611,7.611,0,0,1-1.97,2.334,6.7,6.7,0,0,1-1.607.968L11.513,32.3l-6.5-3.756a2.058,2.058,0,0,1-1.026-1.778V13.373A2.059,2.059,0,0,1,5.008,11.6l11.6-6.7a2.058,2.058,0,0,1,2.053,0l11.6,6.7a2.059,2.059,0,0,1,1.026,1.778V26.766a2.058,2.058,0,0,1-1.026,1.778l-6.5,3.756a6.305,6.305,0,0,1-1.817,3.658L31.388,30.5a4.325,4.325,0,0,0,2.156-3.735V13.373a4.324,4.324,0,0,0-2.156-3.735" transform="translate(-1.263 -1.736)" fill="#ae6c77"/>
    <path id="Path_1963" data-name="Path 1963" d="M2.374,7.337l.311-.18A3.167,3.167,0,0,1,2.28,5.609,3.432,3.432,0,0,1,5.8,2.28h5.333L13.973.64A4.785,4.785,0,0,1,15.714.046c0-.015,0-.031,0-.046H5.8A5.713,5.713,0,0,0,0,5.609,5.442,5.442,0,0,0,.922,8.637a4.779,4.779,0,0,1,1.452-1.3" fill="#ae6c77"/>
    <path id="Path_1964" data-name="Path 1964" d="M65.638.64l2.84,1.64h5.333a3.432,3.432,0,0,1,3.52,3.329,3.164,3.164,0,0,1-.406,1.549l.311.18a4.775,4.775,0,0,1,1.452,1.3,5.443,5.443,0,0,0,.922-3.029A5.713,5.713,0,0,0,73.812,0H63.9c0,.015,0,.031,0,.046a4.779,4.779,0,0,1,1.74.594" transform="translate(-46.871)" fill="#ae6c77"/>
    <path id="Path_1965" data-name="Path 1965" d="M15.425,34.751l-2.062,1.191a1.571,1.571,0,0,0-.58.587,5.93,5.93,0,0,0,2.394.5h4.77V54.537a1,1,0,0,0,1,1h.282a1,1,0,0,0,1-1V36.218l.01-.242.092-1.226Z" transform="translate(-9.376 -25.492)" fill="#ae6c77"/>
  </g>
</svg>
