<svg xmlns="http://www.w3.org/2000/svg" width="40.138" height="35.542" viewBox="0 0 40.138 35.542">
  <g id="photo" transform="translate(0 -24)">
    <g id="Group_2" data-name="Group 2" transform="translate(0 24)">
      <g id="Group_1" data-name="Group 1" transform="translate(0 0)">
        <circle id="Ellipse_1" data-name="Ellipse 1" cx="2.758" cy="2.758" r="2.758" transform="translate(12.371 8.771)" fill="#ae6c77"/>
        <path id="Path_3" data-name="Path 3" d="M37.763,45.677a8.492,8.492,0,0,0-4.749-2.26V29.4a5.514,5.514,0,0,0-1.57-3.83A5.351,5.351,0,0,0,27.614,24H5.4a5.514,5.514,0,0,0-3.83,1.57A5.351,5.351,0,0,0,0,29.4V52.265a5.514,5.514,0,0,0,1.57,3.83,5.351,5.351,0,0,0,3.83,1.57H26.886A8.1,8.1,0,0,0,37.763,45.677ZM2.03,29.4a3.206,3.206,0,0,1,1-2.336,3.361,3.361,0,0,1,2.375-1H27.614a3.4,3.4,0,0,1,3.37,3.37V41.388L25.316,35.72a1.028,1.028,0,0,0-1.455,0L15.32,44.3,9.537,38.477a1.028,1.028,0,0,0-1.455,0L2.03,44.6ZM5.362,55.712v-.077a3.361,3.361,0,0,1-2.375-1,3.5,3.5,0,0,1-.957-2.375V47.516L8.809,40.7l5.783,5.783a1.065,1.065,0,0,0,1.455,0L24.588,37.9l5.592,5.63-.345.115a3.556,3.556,0,0,0-.5.153c-.153.038-.306.115-.46.153a1.147,1.147,0,0,0-.306.153,3.558,3.558,0,0,0-.383.191l-.574.345c-.115.077-.191.115-.306.191-.077.038-.115.077-.191.115a4.621,4.621,0,0,0-.919.8A8.1,8.1,0,0,0,23.822,51.5a8.42,8.42,0,0,0,.191,1.685c.038.153.077.268.115.421.115.383.23.766.383,1.149v.038a7.026,7.026,0,0,0,.5.919Zm30.907,0a6.059,6.059,0,0,1-8.464.077c-.153-.153-.306-.345-.46-.5-.115-.115-.23-.268-.345-.383a3.637,3.637,0,0,1-.383-.651c-.077-.153-.153-.268-.23-.421a3.235,3.235,0,0,1-.191-.651c-.038-.153-.115-.345-.153-.5a6.339,6.339,0,0,1-.115-1.226,6.147,6.147,0,0,1,1.762-4.29,5.921,5.921,0,0,1,4.29-1.762,6.147,6.147,0,0,1,4.29,1.762,5.986,5.986,0,0,1,1.762,4.29A6.125,6.125,0,0,1,36.269,55.712Z" transform="translate(0 -24)" fill="#ae6c77"/>
        <path id="Path_4" data-name="Path 4" d="M302.717,264.706a1.338,1.338,0,0,0-.345-.23,1.119,1.119,0,0,0-.345-.077h-.077a1.119,1.119,0,0,0-.345.077.9.9,0,0,0-.345.23l-2.375,2.375a1.029,1.029,0,0,0,1.455,1.455l.613-.613v4.213a1.034,1.034,0,1,0,2.068,0v-4.213l.613.613a1.029,1.029,0,0,0,1.455-1.455Z" transform="translate(-270.01 -241.382)" fill="#ae6c77"/>
      </g>
    </g>
  </g>
</svg>
